<svg width="8" height="9" viewBox="0 0 8 9" fill="none">
    <defs>
        <clipPath id="collapse-clip-small">
            <path d="M2.06378 0.0821534C1.93878 -0.0273845 1.74705 -0.0273845 1.62205 0.0821534L1.50545 0.184327C1.4368 0.244477 1.39919 0.32872 1.39919 0.415381C1.39919 0.502041 1.4368 0.586284 1.50545 0.646435L3.72083 2.58773C3.87803 2.72549 4.12197 2.72549 4.27917 2.58773L6.49455 0.646435C6.5632 0.586285 6.60081 0.502042 6.60081 0.415381C6.60081 0.328721 6.5632 0.244478 6.49455 0.184326L6.37795 0.0821536C6.25295 -0.027384 6.06122 -0.027385 5.93622 0.0821537L4 1.77882L2.06378 0.0821534Z" fill="white"/>
            <path d="M6.50065 8.35367L4.28527 6.3102C4.12639 6.16365 3.87361 6.16365 3.71473 6.3102L1.49935 8.35367C1.43451 8.41348 1.39919 8.49526 1.39919 8.57924C1.39919 8.66322 1.43451 8.745 1.49935 8.80481L1.61595 8.91236C1.74263 9.02921 1.9432 9.02921 2.06988 8.91236L4 7.13202L5.93012 8.91236C6.0568 9.02921 6.25737 9.02921 6.38405 8.91236L6.50065 8.80481C6.56549 8.745 6.60081 8.66322 6.60081 8.57924C6.60081 8.49526 6.56549 8.41348 6.50065 8.35367Z" fill="white"/>
            <path d="M7.69619 4.1297H0.303806C0.129067 4.1297 0 4.26639 0 4.42007V4.57993C0 4.73361 0.12907 4.8703 0.303806 4.8703H7.69619C7.87093 4.8703 8 4.73361 8 4.57993V4.42007C8 4.26639 7.87093 4.1297 7.69619 4.1297Z" fill="white"/>
        </clipPath>
    </defs>
</svg>
