<svg width="13" height="15" viewBox="0 0 13 15" fill="none" xmlns="http://www.w3.org/2000/svg">
    <defs>
        <clipPath id="collapse-clip">
            <path d="M3.35365 0.136922C3.15052 -0.0456408 2.83896 -0.0456408 2.63583 0.136922L2.44635 0.307212C2.33481 0.407462 2.27368 0.547867 2.27368 0.692302C2.27368 0.836736 2.33481 0.977141 2.44635 1.07739L6.04635 4.31289C6.3018 4.54248 6.6982 4.54248 6.95365 4.31289L10.5536 1.07739C10.6652 0.977142 10.7263 0.836736 10.7263 0.692302C10.7263 0.547868 10.6652 0.407463 10.5536 0.307211L10.3642 0.136923C10.161 -0.0456399 9.84948 -0.0456416 9.64635 0.136923L6.5 2.9647L3.35365 0.136922Z" fill="white"/>
            <path d="M10.5636 13.9228L6.96356 10.517C6.70538 10.2727 6.29462 10.2727 6.03644 10.517L2.43644 13.9228C2.33107 14.0225 2.27368 14.1588 2.27368 14.2987C2.27368 14.4387 2.33107 14.575 2.43644 14.6747L2.62591 14.8539C2.83177 15.0487 3.1577 15.0487 3.36356 14.8539L6.5 11.8867L9.63644 14.8539C9.8423 15.0487 10.1682 15.0487 10.3741 14.8539L10.5636 14.6747C10.6689 14.575 10.7263 14.4387 10.7263 14.2987C10.7263 14.1588 10.6689 14.0225 10.5636 13.9228Z" fill="white"/>
            <path d="M12.5063 6.88283H0.493684C0.209735 6.88283 0 7.11065 0 7.36678V7.63322C0 7.88936 0.209738 8.11717 0.493685 8.11717H12.5063C12.7903 8.11717 13 7.88935 13 7.63322V7.36678C13 7.11065 12.7903 6.88283 12.5063 6.88283Z" fill="white"/>
        </clipPath>
    </defs>
</svg>
