<svg width="8" height="11" viewBox="0 0 8 11" fill="none" xmlns="http://www.w3.org/2000/svg">
    <defs>
        <clipPath id="expand-clip-small">
            <path d="M2.06378 7.41166C1.93878 7.29931 1.74705 7.29931 1.62205 7.41166L1.50545 7.51645C1.4368 7.57814 1.39919 7.66455 1.39919 7.75343C1.39919 7.84231 1.4368 7.92871 1.50545 7.99041L3.72083 9.98148C3.87803 10.1228 4.12197 10.1228 4.27917 9.98148L6.49455 7.99041C6.5632 7.92872 6.60081 7.84231 6.60081 7.75343C6.60081 7.66455 6.5632 7.57814 6.49455 7.51645L6.37795 7.41166C6.25295 7.29931 6.06122 7.29931 5.93622 7.41166L4 9.15183L2.06378 7.41166Z" fill="white"/>
            <path d="M6.50065 3.07133L4.28527 0.975462C4.12639 0.825153 3.87361 0.825153 3.71473 0.975461L1.49935 3.07133C1.43451 3.13267 1.39919 3.21655 1.39919 3.30268C1.39919 3.38881 1.43451 3.47269 1.49935 3.53404L1.61595 3.64434C1.74263 3.76419 1.9432 3.76419 2.06988 3.64434L4 1.81835L5.93012 3.64434C6.0568 3.76419 6.25737 3.76419 6.38406 3.64434L6.50065 3.53403C6.56549 3.47269 6.60081 3.38881 6.60081 3.30268C6.60081 3.21655 6.56549 3.13267 6.50065 3.07133Z" fill="white"/>
            <path d="M7.69619 5.11155H0.303806C0.129067 5.11155 0 5.25174 0 5.40936V5.57333C0 5.73095 0.12907 5.87114 0.303806 5.87114H7.69619C7.87093 5.87114 8 5.73095 8 5.57333V5.40936C8 5.25174 7.87093 5.11155 7.69619 5.11155Z" fill="white"/>
        </clipPath>
    </defs>
</svg>
