<svg width="13" height="16" viewBox="0 0 13 16" fill="none" xmlns="http://www.w3.org/2000/svg">
    <defs>
        <clipPath id="expand-clip">
            <path d="M3.35365 11.6219C3.15052 11.4393 2.83896 11.4393 2.63583 11.6219L2.44635 11.7922C2.33481 11.8924 2.27368 12.0328 2.27368 12.1773C2.27368 12.3217 2.33481 12.4621 2.44635 12.5624L6.04635 15.7978C6.3018 16.0274 6.6982 16.0274 6.95365 15.7978L10.5536 12.5624C10.6652 12.4621 10.7263 12.3217 10.7263 12.1773C10.7263 12.0328 10.6652 11.8924 10.5536 11.7922L10.3642 11.6219C10.161 11.4393 9.84948 11.4393 9.64635 11.6219L6.5 14.4497L3.35365 11.6219Z" fill="white"/>
            <path d="M10.5636 4.56885L6.96356 1.16307C6.70538 0.918815 6.29462 0.918815 6.03644 1.16307L2.43644 4.56885C2.33107 4.66853 2.27368 4.80484 2.27368 4.9448C2.27368 5.08476 2.33107 5.22107 2.43644 5.32075L2.62591 5.5C2.83177 5.69475 3.1577 5.69475 3.36356 5.5L6.5 2.53277L9.63644 5.5C9.8423 5.69475 10.1682 5.69475 10.3741 5.5L10.5636 5.32075C10.6689 5.22107 10.7263 5.08477 10.7263 4.9448C10.7263 4.80484 10.6689 4.66853 10.5636 4.56885Z" fill="white"/>
            <path d="M12.5063 7.88421H0.493684C0.209735 7.88421 0 8.11202 0 8.36816V8.6346C0 8.89073 0.209738 9.11855 0.493685 9.11855H12.5063C12.7903 9.11855 13 8.89073 13 8.6346V8.36816C13 8.11202 12.7903 7.88421 12.5063 7.88421Z" fill="white"/>
        </clipPath>
    </defs>
</svg>
