<svg height="100%" width="100%" viewBox="0 0 171 75" fill="none" xmlns="http://www.w3.org/2000/svg">
    <rect x="0" y='0' width="171" height="75" fill="white" clip-path="url(#eye-clip)"></rect>

    <defs>
        <clipPath id="eye-clip">
            <path fill-rule="evenodd" clip-rule="evenodd" d="M103 37.5001C103 47.1651 95.165 55.0001 85.5 55.0001C75.835 55.0001 68 47.1651 68 37.5001C68 27.8352 75.835 20.0001 85.5 20.0001C95.165 20.0001 103 27.8352 103 37.5001ZM97 37.5001C97 43.8514 91.8513 49.0001 85.5 49.0001C79.1487 49.0001 74 43.8514 74 37.5001C74 31.1489 79.1487 26.0001 85.5 26.0001C91.8513 26.0001 97 31.1489 97 37.5001Z" fill="black"/>
            <path fill-rule="evenodd" clip-rule="evenodd" d="M49.256 9.41922C72.0325 -2.15569 98.9676 -2.15569 121.744 9.41922L168.229 33.0427C171.875 34.8958 171.875 40.1045 168.229 41.9576L121.744 65.5811C98.9676 77.156 72.0325 77.156 49.256 65.5811L2.77107 41.9576C-0.875267 40.1045 -0.875268 34.8958 2.77107 33.0427L49.256 9.41922ZM119.026 14.7681L163.756 37.5001L119.026 60.2322C97.9575 70.9389 73.0425 70.9389 51.9743 60.2322L7.24358 37.5001L51.9743 14.7681C73.0425 4.06134 97.9575 4.06134 119.026 14.7681Z" fill="black"/>
        </clipPath>
    </defs>
</svg>
