<svg width="22" height="22" viewBox="0 0 22 22" fill="none" xmlns="http://www.w3.org/2000/svg">
    <defs>
        <clipPath id="options-clip">
            <path d="M7.83051 11C7.83051 11.9267 7.07926 12.678 6.15254 12.678C5.22583 12.678 4.47458 11.9267 4.47458 11C4.47458 10.0733 5.22583 9.32203 6.15254 9.32203C7.07926 9.32203 7.83051 10.0733 7.83051 11Z" fill="white"/>
            <path d="M11 12.678C11.9267 12.678 12.678 11.9267 12.678 11C12.678 10.0733 11.9267 9.32203 11 9.32203C10.0733 9.32203 9.32203 10.0733 9.32203 11C9.32203 11.9267 10.0733 12.678 11 12.678Z" fill="white"/>
            <path d="M15.8475 12.678C16.7742 12.678 17.5254 11.9267 17.5254 11C17.5254 10.0733 16.7742 9.32203 15.8475 9.32203C14.9207 9.32203 14.1695 10.0733 14.1695 11C14.1695 11.9267 14.9207 12.678 15.8475 12.678Z" fill="white"/>
            <path fill-rule="evenodd" clip-rule="evenodd" d="M11 22C17.0751 22 22 17.0751 22 11C22 4.92487 17.0751 0 11 0C4.92487 0 0 4.92487 0 11C0 17.0751 4.92487 22 11 22ZM20.5085 11C20.5085 16.2514 16.2514 20.5085 11 20.5085C5.74861 20.5085 1.49153 16.2514 1.49153 11C1.49153 5.74861 5.74861 1.49153 11 1.49153C16.2514 1.49153 20.5085 5.74861 20.5085 11Z" fill="white"/>
        </clipPath>
    </defs>
</svg>
