<svg width="24" height="13" viewBox="0 0 24 13" fill="none" xmlns="http://www.w3.org/2000/svg">
    <defs>
        <clipPath id='visible-not-clip'>
            <path fill-rule="evenodd" clip-rule="evenodd" d="M19.7741 9.70983C21.7483 8.64681 22.5 7.42962 22.5 6.46154C22.5 5.49346 21.7483 4.27627 19.7741 3.21325C19.7099 3.17868 19.6448 3.14451 19.5788 3.11073L15.7945 5.19205C15.9279 5.59092 16.0002 6.01778 16.0002 6.46152C16.0002 8.67058 14.2094 10.4614 12.0003 10.4614C10.7483 10.4614 9.63069 9.88614 8.89726 8.98555L6.11131 10.5178C7.78056 11.0818 9.79803 11.4231 12 11.4231C15.1152 11.4231 17.861 10.74 19.7741 9.70983ZM2.81408 10.6194L1.63856 11.2659C1.27562 11.4656 1.14322 11.9216 1.34283 12.2845C1.54245 12.6475 1.9985 12.7799 2.36144 12.5803L4.39678 11.4608C6.46672 12.3747 9.11442 12.9231 12 12.9231C18.6274 12.9231 24 10.0301 24 6.46154C24 4.85853 22.9159 3.39186 21.121 2.26249L22.3614 1.58026C22.7244 1.38064 22.8568 0.924597 22.6572 0.561657C22.4575 0.198716 22.0015 0.0663165 21.6386 0.265934L19.5254 1.42818C17.4671 0.534808 14.8495 0 12 0C5.37258 0 0 2.89293 0 6.46154C0 8.04513 1.05797 9.49567 2.81408 10.6194ZM4.34913 9.77512C4.30767 9.75352 4.26658 9.73175 4.22587 9.70983C2.25169 8.64681 1.5 7.42962 1.5 6.46154C1.5 5.49346 2.25169 4.27627 4.22587 3.21325C6.13895 2.18313 8.88484 1.5 12 1.5C14.1639 1.5 16.1496 1.82961 17.8017 2.37618L15.0595 3.88444C14.3257 3.01437 13.2276 2.46167 12.0003 2.46167C9.79128 2.46167 8.00049 4.25246 8.00049 6.46152C8.00049 6.88106 8.06508 7.28551 8.18486 7.66547L4.34913 9.77512ZM10.2469 8.24327L14.4445 5.93455C14.481 6.10444 14.5002 6.28074 14.5002 6.46152C14.5002 7.84215 13.381 8.96137 12.0003 8.96137C11.3172 8.96137 10.6981 8.68737 10.2469 8.24327ZM13.7026 4.63074C13.2563 4.21559 12.6579 3.96167 12.0003 3.96167C10.6197 3.96167 9.50049 5.08089 9.50049 6.46152C9.50049 6.61774 9.51482 6.77062 9.54224 6.91891L13.7026 4.63074Z" fill="white"/>
        </clipPath>
    </defs>
</svg>
