<svg width="24" height="13" viewBox="0 0 24 13" fill="none" xmlns="http://www.w3.org/2000/svg">
    <defs>
        <clipPath id='visible-clip'>
            <path fill-rule="evenodd" clip-rule="evenodd" d="M22.5 6.53844C22.5 7.50652 21.7483 8.72371 19.7741 9.78673C17.861 10.8169 15.1152 11.5 12 11.5C8.88484 11.5 6.13895 10.8169 4.22587 9.78673C2.25169 8.72371 1.5 7.50652 1.5 6.53844C1.5 5.57036 2.25169 4.35317 4.22587 3.29015C6.13895 2.26003 8.88484 1.5769 12 1.5769C15.1152 1.5769 17.861 2.26003 19.7741 3.29015C21.7483 4.35317 22.5 5.57036 22.5 6.53844ZM24 6.53844C24 10.1071 18.6274 13 12 13C5.37258 13 0 10.1071 0 6.53844C0 2.96983 5.37258 0.0769043 12 0.0769043C18.6274 0.0769043 24 2.96983 24 6.53844ZM14.5002 6.53842C14.5002 7.91905 13.381 9.03827 12.0003 9.03827C10.6197 9.03827 9.50049 7.91905 9.50049 6.53842C9.50049 5.15779 10.6197 4.03857 12.0003 4.03857C13.381 4.03857 14.5002 5.15779 14.5002 6.53842ZM16.0002 6.53842C16.0002 8.74748 14.2094 10.5383 12.0003 10.5383C9.79128 10.5383 8.00049 8.74748 8.00049 6.53842C8.00049 4.32937 9.79128 2.53857 12.0003 2.53857C14.2094 2.53857 16.0002 4.32937 16.0002 6.53842Z" fill="white"/>
        </clipPath>
    </defs>
</svg>
