<svg width="8" height="8" viewBox="0 0 8 8" fill="none" xmlns="http://www.w3.org/2000/svg">
    <defs>
    <clipPath id='x-clip-small'>
    <path d="M7.8482 0.151799C7.64574 -0.0505995 7.31763 -0.0505995 7.11517 0.151799L4 3.26701L0.884831 0.151799C0.682371 -0.0505995 0.354258 -0.0505995 0.151798 0.151799C-0.0505993 0.354228 -0.0505993 0.682374 0.151798 0.884804L3.26703 4.00002L0.151861 7.1152C-0.0505993 7.3176 -0.0505993 7.64578 0.151861 7.84818C0.354258 8.05061 0.682434 8.05061 0.884831 7.84818L4 4.73299L7.11517 7.84818C7.31757 8.05061 7.64574 8.05061 7.84814 7.84818C8.0506 7.64578 8.0506 7.3176 7.84814 7.1152L4.73297 4.00002L7.8482 0.884804C8.0506 0.682374 8.0506 0.354228 7.8482 0.151799Z" fill="white"/>
    </clipPath>
    </defs>
</svg>
