<svg width="13" height="13" viewBox="0 0 13 13" fill="none" xmlns="http://www.w3.org/2000/svg">
    <defs>
        <clipPath id='x-clip'>
            <path d="M12.7533 0.246673C12.4243 -0.0822242 11.8911 -0.0822242 11.5622 0.246673L6.5 5.3089L1.43785 0.246673C1.10885 -0.0822242 0.57567 -0.0822242 0.246671 0.246673C-0.0822238 0.575621 -0.0822238 1.10886 0.246671 1.43781L5.30892 6.50003L0.246774 11.5622C-0.0822238 11.8911 -0.0822238 12.4244 0.246774 12.7533C0.57567 13.0822 1.10895 13.0822 1.43785 12.7533L6.5 7.69111L11.5622 12.7533C11.891 13.0822 12.4243 13.0822 12.7532 12.7533C13.0822 12.4244 13.0822 11.8911 12.7532 11.5622L7.69108 6.50003L12.7533 1.43781C13.0822 1.10886 13.0822 0.575621 12.7533 0.246673Z" fill="white"/>
        </clipPath>
    </defs>
</svg>
